<?xml version="1.0" standalone="no"?>
<!DOCTYPE svg PUBLIC "-//W3C//DTD SVG 20010904//EN"
 "http://www.w3.org/TR/2001/REC-SVG-20010904/DTD/svg10.dtd">
<svg version="1.0" xmlns="http://www.w3.org/2000/svg"
 width="1040.000000pt" height="646.000000pt" viewBox="0 0 1040.000000 646.000000"
 preserveAspectRatio="xMidYMid meet">

<g transform="translate(0.000000,646.000000) scale(0.100000,-0.100000)"
fill="#000000" stroke="none">
<path d="M4666 6098 c-92 -134 -259 -373 -370 -533 -111 -159 -231 -333 -267
-385 -36 -52 -159 -230 -274 -395 -205 -295 -470 -679 -695 -1005 -63 -91
-133 -192 -156 -225 -96 -136 -135 -191 -463 -665 -188 -272 -441 -637 -561
-810 -120 -173 -242 -350 -272 -392 -29 -43 -74 -108 -100 -145 -26 -38 -52
-75 -58 -83 -5 -8 -28 -41 -50 -73 -91 -132 -179 -326 -218 -483 -11 -43 -37
-196 -56 -339 -20 -143 -41 -285 -46 -315 -5 -30 -12 -77 -15 -103 l-5 -48 97
3 c56 2 98 7 99 13 1 21 16 142 24 200 5 33 14 103 20 155 6 52 15 124 20 160
5 36 14 106 21 155 29 225 87 346 337 705 55 80 127 183 159 229 32 46 63 89
68 95 6 6 26 36 45 66 19 30 37 57 40 60 6 4 82 114 284 410 29 41 68 98 87
125 35 50 100 144 256 370 45 66 90 131 100 144 9 13 33 47 53 76 19 28 139
202 265 385 234 338 282 407 580 840 93 135 183 265 200 290 133 189 461 663
630 910 150 218 443 641 485 700 26 36 59 84 74 108 l26 42 -98 0 -99 0 -167
-242z"/>
<path d="M5390 6190 c0 -16 5 -30 10 -30 6 0 10 14 10 30 0 17 -4 30 -10 30
-5 0 -10 -13 -10 -30z"/>
<path d="M5360 6180 c0 -5 5 -10 10 -10 6 0 10 5 10 10 0 6 -4 10 -10 10 -5 0
-10 -4 -10 -10z"/>
<path d="M5211 6033 c-12 -13 -11 -14 8 -8 27 8 27 -3 -1 -32 -12 -13 -17 -23
-12 -23 5 0 17 12 28 26 15 22 16 28 5 39 -12 11 -16 11 -28 -2z"/>
<path d="M5109 5863 c-7 -44 -6 -63 2 -63 5 0 9 16 9 35 0 30 -8 49 -11 28z"/>
<path d="M5075 5820 c-3 -5 -1 -10 4 -10 6 0 11 5 11 10 0 6 -2 10 -4 10 -3 0
-8 -4 -11 -10z"/>
<path d="M5073 5705 c-3 -9 -18 -22 -34 -31 -33 -17 -39 -53 -13 -78 14 -14
14 -16 0 -16 -8 0 -19 -6 -23 -13 -4 -8 -16 -16 -25 -20 -17 -6 -19 -22 -5
-44 4 -7 2 -21 -5 -32 -10 -17 -9 -23 6 -40 17 -19 18 -23 4 -38 -11 -14 -13
-27 -6 -61 10 -47 43 -76 87 -78 22 -1 27 -6 31 -40 4 -29 7 -35 13 -21 4 10
7 30 7 43 0 24 1 24 22 10 24 -17 48 -6 48 22 0 12 3 13 12 4 28 -28 34 -12
35 88 0 55 -3 100 -7 100 -4 0 -5 11 -2 25 2 15 0 25 -7 25 -6 0 -11 11 -11
25 0 16 -6 25 -15 25 -8 0 -15 5 -15 10 0 6 5 10 11 10 5 0 7 5 4 10 -4 6 -11
7 -17 4 -7 -5 -9 3 -5 21 10 57 -71 138 -90 90z m-8 -65 c3 -5 2 -10 -4 -10
-5 0 -13 5 -16 10 -3 6 -2 10 4 10 5 0 13 -4 16 -10z"/>
<path d="M4963 5621 c17 -6 17 -8 -3 -34 -12 -15 -18 -27 -13 -27 13 1 45 49
38 60 -3 6 -14 10 -23 9 -15 0 -15 -1 1 -8z"/>
<path d="M4835 5359 c6 -45 15 -49 15 -6 0 21 -4 37 -10 37 -5 0 -7 -14 -5
-31z"/>
<path d="M4971 5182 c-5 -10 -21 -24 -34 -31 -29 -15 -40 -56 -21 -72 20 -16
17 -29 -6 -29 -11 0 -20 -7 -20 -15 0 -8 -7 -15 -15 -15 -17 0 -20 -35 -4 -45
7 -5 5 -13 -6 -24 -14 -16 -13 -20 7 -46 20 -25 20 -29 5 -40 -13 -9 -18 -61
-7 -72 3 -3 7 -18 9 -32 1 -11 60 -36 86 -36 16 0 20 -6 17 -32 -3 -45 14 -42
23 5 4 20 10 31 12 25 7 -19 21 -16 26 5 4 16 5 16 6 0 1 -20 16 -24 27 -7 3
6 0 15 -7 20 -7 4 -10 11 -6 15 4 4 15 0 25 -9 23 -21 36 -22 28 -2 -3 8 -1
15 4 15 6 0 9 22 7 50 -1 27 -4 50 -7 50 -3 0 -4 29 -3 65 1 52 -1 65 -13 65
-11 0 -13 6 -9 20 4 14 1 22 -10 26 -9 4 -14 13 -11 20 3 8 -1 14 -9 14 -11 0
-13 8 -8 30 4 23 1 35 -14 48 -11 9 -22 25 -26 35 -8 22 -34 22 -46 -1z m-11
-68 c0 -2 -7 -4 -15 -4 -8 0 -15 4 -15 10 0 5 7 7 15 4 8 -4 15 -8 15 -10z"/>
<path d="M4704 5158 c-5 -8 -2 -9 9 -5 22 8 22 -11 0 -35 -9 -10 -12 -18 -6
-18 14 0 37 46 29 59 -9 14 -23 14 -32 -1z"/>
<path d="M4522 5115 c-19 -41 -15 -64 12 -71 37 -9 49 3 42 44 -5 31 -19 51
-37 52 -3 0 -11 -11 -17 -25z"/>
<path d="M4430 4981 c-17 -33 -12 -69 10 -76 32 -10 52 12 44 49 -10 47 -36
60 -54 27z"/>
<path d="M4607 4913 c-2 -5 -1 -19 4 -33 7 -23 7 -23 8 8 1 31 -3 40 -12 25z"/>
<path d="M4482 4648 c-13 -15 -21 -28 -18 -28 11 0 47 41 44 49 -2 4 -13 -5
-26 -21z"/>
<path d="M4034 4607 c-28 -30 -36 -67 -13 -67 6 0 -2 -11 -17 -25 -21 -20 -24
-28 -15 -39 9 -11 9 -15 -1 -19 -10 -3 -9 -9 4 -23 11 -13 14 -24 8 -34 -11
-17 13 -65 39 -80 11 -5 31 -10 45 -10 21 0 26 -5 26 -25 0 -14 5 -25 10 -25
6 0 10 10 10 23 0 20 4 23 35 19 22 -3 35 0 35 7 0 7 9 9 25 5 21 -5 25 -3 25
17 0 49 -13 99 -23 92 -6 -3 -7 -1 -3 5 9 16 -16 92 -31 92 -7 0 -13 7 -13 15
0 8 -5 15 -11 15 -15 0 -39 26 -39 43 0 14 -41 47 -57 47 -4 0 -22 -15 -39
-33z"/>
<path d="M4612 4541 c-8 -4 -16 -26 -19 -49 -5 -35 -3 -41 17 -47 37 -12 54
14 40 64 -11 42 -16 46 -38 32z"/>
<path d="M4417 4483 c-6 -11 -2 -51 6 -59 4 -4 7 9 7 29 0 36 -4 45 -13 30z"/>
<path d="M4782 4420 c0 -19 2 -27 5 -17 2 9 2 25 0 35 -3 9 -5 1 -5 -18z"/>
<path d="M4540 4374 c-23 -59 -6 -88 43 -76 20 5 22 26 6 71 -13 38 -36 40
-49 5z"/>
<path d="M3878 4371 c-9 -10 -22 -21 -29 -23 -12 -4 -12 -9 -1 -27 7 -12 8
-21 2 -21 -5 0 -10 -7 -10 -16 0 -8 -4 -13 -9 -10 -16 10 -8 -68 8 -81 13 -10
13 -14 3 -21 -10 -7 -11 -37 -2 -62 2 -3 2 -8 2 -12 -2 -13 30 -32 66 -37 33
-6 37 -10 40 -39 4 -39 22 -43 22 -4 0 24 4 27 33 27 18 0 31 5 30 11 -1 7 8
9 22 6 14 -2 25 -2 25 1 0 5 -27 85 -37 107 -3 8 -6 18 -5 22 3 14 -29 78 -38
78 -6 0 -10 6 -10 14 0 8 -6 16 -14 19 -8 3 -20 18 -28 33 -7 15 -22 33 -33
40 -18 12 -23 11 -37 -5z"/>
<path d="M4907 4374 c-12 -13 -7 -24 8 -18 21 9 19 -10 -5 -31 -11 -10 -18
-20 -16 -22 9 -9 47 39 44 54 -3 18 -21 27 -31 17z"/>
<path d="M4325 4230 c-3 -6 1 -7 9 -4 23 9 20 -16 -6 -43 -15 -16 -17 -22 -7
-18 21 8 43 50 35 64 -9 14 -23 14 -31 1z"/>
<path d="M4690 4212 c0 -18 4 -32 9 -32 5 0 8 11 7 25 -4 38 -16 43 -16 7z"/>
<path d="M4501 4201 c-14 -14 -21 -31 -19 -49 2 -23 8 -27 33 -27 36 0 42 18
22 66 l-13 33 -23 -23z"/>
<path d="M4196 4103 c-17 -35 -5 -73 23 -73 31 0 42 30 26 68 -17 39 -30 41
-49 5z"/>
<path d="M4635 4112 c-21 -15 -32 -47 -24 -70 7 -18 15 -23 36 -20 25 3 28 6
25 38 -3 38 -21 63 -37 52z"/>
<path d="M4837 4064 c3 -8 -3 -24 -12 -34 -10 -11 -15 -20 -11 -20 9 0 45 41
46 51 0 4 -7 9 -14 12 -10 4 -13 1 -9 -9z"/>
<path d="M4455 4020 c0 -16 3 -30 8 -30 4 0 7 14 7 30 0 17 -3 30 -7 30 -5 0
-8 -13 -8 -30z"/>
<path d="M3521 3982 c-5 -10 -21 -24 -34 -31 -29 -16 -40 -56 -21 -76 18 -18
18 -22 -6 -28 -11 -3 -20 -12 -20 -21 0 -10 -6 -13 -15 -10 -18 7 -21 -26 -3
-44 9 -9 8 -15 -8 -26 -19 -14 -19 -15 5 -40 22 -24 23 -27 9 -43 -13 -15 -17
-59 -8 -70 3 -3 7 -19 9 -32 1 -10 59 -35 81 -36 10 0 16 -12 18 -32 2 -18 8
-33 13 -33 5 0 9 6 8 13 -3 24 3 62 8 50 2 -7 18 -13 35 -13 26 0 30 3 25 21
-5 20 -5 20 13 4 10 -9 23 -14 28 -11 10 6 22 76 12 76 -3 0 -6 42 -7 92 -1
55 -6 94 -12 96 -6 2 -11 12 -11 23 0 11 -7 22 -15 25 -8 4 -12 10 -9 16 3 5
-2 16 -12 23 -11 9 -14 14 -6 15 17 0 15 25 -3 44 -8 8 -19 26 -25 40 -11 30
-35 34 -49 8z m-16 -72 c3 -6 -1 -7 -9 -4 -18 7 -21 14 -7 14 6 0 13 -4 16
-10z m72 -76 c-3 -3 -12 -4 -19 -1 -8 3 -5 6 6 6 11 1 17 -2 13 -5z"/>
<path d="M4281 3966 c-20 -37 -11 -61 24 -61 34 0 41 17 26 58 -13 33 -34 35
-50 3z"/>
<path d="M3778 3913 c6 -2 18 -2 25 0 6 3 1 5 -13 5 -14 0 -19 -2 -12 -5z"/>
<path d="M3980 3900 c0 -5 9 -9 20 -7 31 5 36 17 7 17 -15 0 -27 -4 -27 -10z"/>
<path d="M3770 3890 c0 -5 10 -10 23 -10 18 0 19 2 7 10 -19 13 -30 13 -30 0z"/>
<path d="M3993 3865 c-3 -9 -3 -18 -1 -21 3 -3 8 4 11 16 6 23 -1 27 -10 5z"/>
<path d="M4555 3840 c-3 -6 1 -7 9 -4 22 9 20 -9 -4 -31 -11 -10 -18 -20 -16
-22 7 -8 46 36 46 52 0 17 -25 20 -35 5z"/>
<path d="M4860 3820 c8 -5 20 -10 25 -10 6 0 3 5 -5 10 -8 5 -19 10 -25 10 -5
0 -3 -5 5 -10z"/>
<path d="M5156 3795 c-3 -9 0 -12 10 -8 21 8 17 -11 -6 -32 -11 -10 -18 -20
-15 -23 6 -6 44 40 45 54 0 18 -28 25 -34 9z"/>
<path d="M4876 3773 c-6 -14 -5 -15 5 -6 7 7 10 15 7 18 -3 3 -9 -2 -12 -12z"/>
<path d="M5815 3720 c-3 -6 1 -7 9 -4 24 9 20 -23 -4 -36 -11 -6 -20 -16 -20
-23 0 -6 12 0 26 15 17 16 24 32 21 42 -7 18 -23 21 -32 6z"/>
<path d="M4174 3653 c-10 -11 -31 -28 -45 -37 -31 -19 -36 -63 -10 -83 15 -12
13 -14 -19 -17 -8 0 -14 -7 -12 -13 1 -7 -5 -13 -13 -13 -21 0 -29 -24 -16
-49 7 -13 8 -22 1 -26 -15 -9 -12 -34 5 -52 14 -14 14 -17 1 -32 -12 -13 -12
-25 -3 -64 11 -50 27 -65 82 -77 26 -5 30 -10 29 -38 -2 -44 12 -40 21 5 3 20
10 32 13 27 11 -16 53 -14 59 2 4 11 9 12 18 4 10 -8 15 -7 21 2 11 17 12 128
1 135 -4 2 -3 11 3 18 7 8 7 21 0 39 -5 14 -7 33 -3 42 4 10 -1 20 -11 26 -10
6 -15 16 -11 28 4 12 -1 19 -15 23 -13 3 -18 10 -14 21 3 9 2 16 -3 16 -5 0
-8 13 -5 29 3 19 -2 36 -15 48 -10 11 -23 28 -29 38 -10 18 -11 17 -30 -2z
m-23 -80 c13 -15 12 -15 -8 -4 -24 12 -29 21 -14 21 5 0 15 -7 22 -17z"/>
<path d="M4338 3493 c-20 -51 -19 -62 7 -69 42 -10 58 2 51 38 -12 60 -40 75
-58 31z"/>
<path d="M4570 3489 c-28 -52 -19 -79 28 -79 30 0 36 20 18 64 -17 41 -30 45
-46 15z"/>
<path d="M6163 3503 c-7 -3 -13 -10 -13 -16 0 -7 -14 -18 -30 -25 -34 -15 -49
-55 -32 -82 9 -15 7 -19 -10 -23 -11 -3 -17 -10 -13 -16 3 -6 -1 -11 -10 -11
-21 0 -29 -24 -16 -49 7 -13 8 -22 1 -26 -15 -9 -12 -36 6 -56 15 -16 15 -20
1 -33 -12 -13 -13 -23 -5 -58 13 -51 41 -77 86 -78 30 0 32 -2 32 -36 0 -21 4
-33 10 -29 6 3 10 20 10 38 0 24 3 28 12 19 17 -17 45 -15 57 6 9 14 12 15 20
3 10 -16 34 -5 28 12 -2 7 0 22 4 34 5 12 5 25 0 27 -4 3 -6 19 -3 37 4 24 2
30 -8 24 -9 -6 -10 -3 -3 10 13 23 4 108 -12 117 -7 5 -11 17 -8 28 4 14 0 20
-11 20 -19 0 -21 16 -3 23 7 3 6 6 -5 6 -23 1 -32 19 -19 35 8 10 6 20 -9 39
-11 14 -20 30 -20 35 0 14 -23 30 -37 25z m-32 -90 c13 -15 12 -15 -8 -4 -24
12 -29 21 -14 21 5 0 15 -7 22 -17z"/>
<path d="M3858 3448 c-18 -35 -17 -58 4 -69 29 -16 48 -3 48 30 0 61 -28 82
-52 39z"/>
<path d="M3596 3444 c-8 -22 -9 -21 21 -27 24 -4 26 -4 10 8 -22 16 -22 22 1
28 13 4 12 5 -4 6 -12 0 -25 -6 -28 -15z"/>
<path d="M5695 3436 c-24 -37 -16 -70 18 -74 34 -4 44 17 27 58 -17 42 -26 45
-45 16z"/>
<path d="M3153 3433 c-7 -2 -13 -10 -13 -16 0 -7 -13 -18 -29 -25 -33 -14 -47
-64 -24 -83 19 -16 16 -29 -7 -29 -12 0 -20 -7 -20 -16 0 -10 -6 -14 -15 -10
-17 6 -20 -20 -5 -44 6 -10 4 -20 -6 -31 -13 -14 -12 -19 7 -44 20 -24 21 -28
6 -36 -16 -9 -17 -44 -3 -67 4 -7 5 -16 2 -21 -7 -11 59 -51 85 -51 15 0 19
-7 19 -36 0 -21 4 -33 10 -29 6 3 10 19 10 36 0 26 2 28 19 18 23 -15 55 -4
48 16 -4 9 -1 12 9 8 7 -3 14 -9 14 -14 0 -23 18 -6 25 24 9 38 12 117 5 117
-3 0 -6 26 -7 57 -1 32 -7 59 -13 61 -5 2 -10 14 -10 27 0 12 -7 25 -15 29 -8
3 -15 9 -14 13 1 4 0 10 -1 13 -1 3 -3 19 -5 37 -1 18 -10 39 -18 48 -9 8 -19
24 -22 35 -6 20 -11 22 -32 13z m-25 -91 c2 -7 -2 -10 -12 -6 -9 3 -16 11 -16
16 0 13 23 5 28 -10z m72 -66 c0 -3 -4 -8 -10 -11 -5 -3 -10 -1 -10 4 0 6 5
11 10 11 6 0 10 -2 10 -4z"/>
<path d="M3497 3366 c-3 -8 -2 -27 3 -43 8 -26 8 -25 9 15 1 43 -3 52 -12 28z"/>
<path d="M4585 3360 c-3 -6 1 -7 9 -4 23 9 20 -16 -6 -43 -13 -14 -16 -21 -8
-18 21 8 52 53 45 65 -8 13 -32 13 -40 0z"/>
<path d="M6453 3350 c-3 -11 -9 -20 -14 -20 -10 0 -7 -29 4 -47 11 -17 54 -16
60 1 7 17 -2 56 -16 74 -14 18 -28 15 -34 -8z"/>
<path d="M3320 3331 c-24 -46 -4 -90 35 -75 26 10 12 94 -15 94 -5 0 -14 -9
-20 -19z"/>
<path d="M3470 3330 c0 -5 5 -10 11 -10 5 0 7 5 4 10 -3 6 -8 10 -11 10 -2 0
-4 -4 -4 -10z"/>
<path d="M5013 3333 c22 -6 22 -12 -5 -40 -12 -13 -17 -23 -12 -23 14 1 46 49
39 60 -3 6 -14 9 -23 9 -15 -1 -15 -2 1 -6z"/>
<path d="M5440 3310 c0 -5 7 -7 15 -4 21 9 19 -10 -5 -31 -11 -10 -18 -20 -16
-22 9 -9 47 39 42 53 -6 16 -36 19 -36 4z"/>
<path d="M7192 3301 c-7 -4 -13 -25 -15 -47 -2 -34 1 -39 22 -42 35 -5 45 10
31 52 -13 40 -21 48 -38 37z"/>
<path d="M5867 3286 c-4 -10 -1 -13 9 -9 8 3 14 -1 14 -10 0 -8 -7 -17 -15
-21 -8 -3 -15 -11 -15 -17 0 -7 11 -2 25 11 19 18 22 27 14 41 -12 23 -25 24
-32 5z"/>
<path d="M6584 3282 c-6 -10 -11 -29 -10 -42 1 -21 7 -26 34 -28 30 -3 32 -1
32 27 0 16 -3 36 -6 45 -8 21 -37 20 -50 -2z"/>
<path d="M3589 3283 c0 -4 -2 -16 -4 -26 -2 -11 0 -16 3 -12 4 4 8 11 8 16 3
22 5 23 15 9 9 -12 10 -12 7 -1 -5 16 -28 28 -29 14z"/>
<path d="M5200 3270 c0 -5 5 -10 11 -10 5 0 7 5 4 10 -3 6 -8 10 -11 10 -2 0
-4 -4 -4 -10z"/>
<path d="M7702 3273 c-6 -3 -10 -9 -6 -14 3 -5 0 -9 -6 -9 -7 0 -10 -13 -8
-32 3 -29 7 -33 37 -36 l34 -3 -6 37 c-7 41 -25 64 -45 57z"/>
<path d="M3406 3244 c-8 -20 -1 -30 24 -37 23 -6 28 21 8 41 -16 16 -25 15
-32 -4z m25 -17 c-13 -13 -26 -3 -16 12 3 6 11 8 17 5 6 -4 6 -10 -1 -17z"/>
<path d="M3866 3238 c-25 -35 -21 -75 8 -80 38 -7 48 4 41 45 -10 51 -29 64
-49 35z"/>
<path d="M7337 3233 c-17 -36 -16 -53 4 -66 39 -24 65 25 39 74 -15 26 -27 24
-43 -8z"/>
<path d="M7530 3245 c0 -8 -5 -15 -11 -15 -6 0 -9 -12 -7 -27 2 -23 8 -29 36
-31 35 -4 37 1 26 57 -5 21 -12 31 -25 31 -11 0 -19 -7 -19 -15z"/>
<path d="M6900 3203 c0 -24 3 -33 9 -25 7 12 4 62 -5 62 -2 0 -4 -17 -4 -37z"/>
<path d="M8292 3205 c-19 -42 -15 -64 14 -71 37 -9 48 7 37 53 -10 45 -35 54
-51 18z"/>
<path d="M8381 3108 c-1 -68 -6 -188 -11 -268 -5 -80 -8 -154 -7 -165 1 -11
-2 -92 -6 -180 -5 -88 -10 -200 -13 -250 -6 -136 -24 -528 -24 -547 0 -16 -14
-18 -160 -18 -100 0 -160 -4 -160 -10 0 -6 60 -10 159 -10 l159 0 124 -60 123
-60 -255 0 c-140 0 -265 3 -278 6 -19 5 -20 9 -10 22 11 13 10 15 -5 9 -16 -6
-17 -3 -11 28 5 29 2 39 -16 55 -13 11 -20 20 -15 20 4 0 2 7 -5 15 -17 20
-47 19 -52 -2 -4 -16 -16 -18 -97 -15 l-93 3 6 32 c3 18 10 93 16 167 6 74 15
187 20 250 14 171 22 310 19 310 -32 4 -320 23 -509 35 -425 26 -445 27 -450
30 -3 2 -46 5 -94 6 l-88 2 -3 -49 c-13 -186 -17 -239 -20 -244 -1 -3 -6 -62
-9 -132 l-7 -128 70 0 c38 0 72 -3 74 -7 2 -5 0 -44 -5 -88 -5 -44 -11 -104
-14 -132 l-5 -53 -73 0 -72 0 -13 -162 c-6 -90 -17 -214 -23 -276 -6 -62 -8
-115 -5 -119 6 -6 28 -7 232 -18 72 -4 153 -9 180 -11 273 -17 603 -34 656
-34 l66 0 12 123 c18 178 14 169 75 165 43 -3 51 -6 52 -23 2 -40 15 -61 48
-79 19 -10 39 -16 44 -12 17 10 33 -21 26 -50 -5 -18 -3 -25 4 -20 6 4 14 23
18 44 4 20 9 31 11 25 5 -14 45 -18 57 -6 4 5 18 8 29 8 20 0 22 5 22 52 l0
51 78 4 c43 2 143 2 222 0 l143 -4 6 -47 c5 -38 12 -50 35 -64 16 -9 41 -17
55 -17 23 0 26 -4 26 -36 0 -21 4 -33 10 -29 6 3 10 23 10 43 1 29 3 33 10 20
10 -17 52 -17 58 0 1 5 14 7 27 4 25 -4 25 -3 25 62 l0 66 53 0 54 0 11 320
c7 176 17 465 22 643 6 177 15 447 21 600 6 156 7 282 3 287 -5 4 -58 11 -119
14 -60 4 -166 11 -235 16 -69 5 -143 10 -166 10 l-41 0 -2 -122z m301 90 c84
-6 170 -11 191 -12 20 0 37 -1 37 -3 0 -2 -145 -96 -203 -132 l-38 -23 -47 36
c-26 19 -54 41 -62 49 -8 7 -35 28 -60 47 -25 18 -49 37 -54 42 -14 11 55 10
236 -4z m-155 -84 c59 -48 113 -89 120 -91 8 -3 11 -31 7 -96 -2 -51 -9 -209
-14 -352 -6 -143 -15 -359 -20 -480 -6 -121 -12 -272 -15 -335 -5 -102 -7
-117 -26 -131 -16 -12 -20 -23 -17 -43 3 -15 2 -25 -2 -24 -5 2 -56 26 -115
53 l-106 50 5 170 c3 94 11 265 16 380 25 523 31 641 37 808 3 97 9 177 14
177 4 0 56 -39 116 -86z m393 -295 c-6 -189 -15 -474 -20 -634 -6 -159 -13
-408 -16 -552 -4 -145 -8 -263 -10 -263 -1 0 -25 14 -53 31 -32 20 -51 39 -51
50 0 11 -4 19 -10 19 -5 0 -10 11 -10 25 0 16 -6 25 -16 25 -11 0 -14 6 -9 21
5 13 3 19 -3 15 -5 -3 -12 1 -16 9 -3 8 -1 17 4 20 12 7 1 36 -22 56 -10 9
-15 18 -13 21 3 3 -2 11 -11 19 -14 11 -18 10 -31 -6 -13 -18 -14 -4 -9 130 9
214 25 578 36 800 5 105 10 231 10 280 1 50 3 99 6 110 3 12 53 50 127 96 67
42 123 75 125 74 1 -1 -3 -157 -8 -346z m-1925 -344 c752 -46 778 -48 764 -58
-49 -40 -282 -229 -343 -279 -160 -133 -184 -150 -199 -141 -18 10 -521 483
-525 493 -2 4 12 6 30 4 18 -2 141 -11 273 -19z m-30 -271 c94 -88 188 -177
211 -197 47 -42 44 -13 23 -278 l-11 -147 -84 -58 c-47 -33 -152 -106 -234
-164 -254 -179 -302 -211 -306 -208 -1 2 2 62 7 133 5 72 13 182 18 246 5 64
12 122 16 129 5 9 24 11 64 7 31 -4 61 -3 67 1 6 4 12 31 13 61 1 29 3 57 5
60 3 4 7 45 11 92 l6 86 -38 6 c-21 4 -53 7 -72 7 l-34 0 6 88 c12 182 27 368
33 391 6 26 -29 55 299 -255z m810 164 c-3 -18 -10 -91 -16 -163 -5 -71 -14
-182 -20 -245 -5 -63 -12 -152 -16 -198 -6 -76 -9 -88 -50 -148 l-44 -66 31
-95 c33 -101 33 -101 12 -302 l-7 -64 -100 108 c-55 60 -109 118 -120 130 -11
11 -69 73 -128 137 l-109 118 12 181 c12 193 15 208 40 226 9 6 77 61 151 122
74 61 158 130 187 153 29 24 78 64 109 91 31 26 60 47 65 47 5 0 6 -15 3 -32z
m103 -712 c-21 -15 -24 -72 -5 -79 6 -2 8 -8 4 -13 -9 -10 -217 -19 -217 -10
0 3 16 31 36 61 l37 55 81 0 c69 -1 79 -3 64 -14z m32 -36 c0 -5 -7 -7 -15 -4
-8 4 -15 8 -15 10 0 2 7 4 15 4 8 0 15 -4 15 -10z m705 -21 c11 -17 2 -18 -19
-3 -17 12 -17 14 -4 14 9 0 20 -5 23 -11z m-1386 -68 c14 -16 74 -80 132 -142
195 -210 288 -313 286 -315 -1 -2 -77 2 -167 7 -91 6 -194 11 -230 13 -213 10
-656 38 -659 42 -6 5 -12 1 269 195 124 85 248 172 275 191 28 20 54 37 59 37
5 1 21 -12 35 -28z m585 -16 c-4 -8 0 -23 7 -32 11 -13 11 -17 2 -20 -18 -6
-16 -33 4 -55 28 -31 0 -46 -67 -39 l-55 6 -26 78 -27 77 84 0 c70 0 82 -2 78
-15z m669 8 c37 -3 67 -10 67 -14 0 -5 -7 -6 -17 -2 -14 5 -15 1 -9 -35 4 -26
2 -42 -4 -42 -17 0 -11 -22 12 -47 l21 -23 -230 0 c-127 0 -237 2 -245 5 -9 4
-13 23 -11 66 1 44 -3 62 -13 66 -8 3 -14 11 -14 19 0 11 34 14 188 14 103 0
217 -3 255 -7z m329 -161 c-20 -2 -40 -9 -44 -15 -6 -9 -8 -9 -8 0 0 6 5 15
10 18 6 4 8 16 4 27 -6 19 -4 19 35 -4 l41 -23 -38 -3z"/>
<path d="M8140 3185 c-10 -12 -10 -15 0 -15 7 0 10 -7 7 -15 -4 -8 -2 -17 3
-20 6 -4 10 9 10 29 0 40 -2 42 -20 21z"/>
<path d="M3998 3118 c-27 -48 -16 -78 29 -78 28 0 38 32 21 67 -17 35 -34 39
-50 11z"/>
<path d="M6583 3117 c-12 -19 -14 -45 -3 -52 6 -3 7 1 4 9 -4 10 -1 16 9 16 9
0 18 -8 20 -17 4 -16 5 -16 6 0 1 11 -7 21 -19 24 -11 3 -17 9 -15 14 3 4 12
6 20 2 8 -3 15 -3 15 0 0 12 -30 15 -37 4z"/>
<path d="M7648 3113 c6 -2 18 -2 25 0 6 3 1 5 -13 5 -14 0 -19 -2 -12 -5z"/>
<path d="M7154 3085 c19 -14 36 -12 36 6 0 5 -12 9 -27 9 -27 -1 -27 -1 -9
-15z"/>
<path d="M7630 3089 c0 -5 9 -9 20 -9 11 0 20 2 20 4 0 2 -9 6 -20 9 -11 3
-20 1 -20 -4z"/>
<path d="M8281 3071 c-18 -42 -11 -65 22 -69 33 -4 41 13 29 59 -11 44 -36 49
-51 10z"/>
<path d="M4680 3048 c0 -21 -6 -79 -29 -295 -6 -49 -15 -132 -20 -185 -6 -54
-16 -142 -22 -195 -5 -54 -14 -138 -20 -187 -5 -49 -8 -91 -6 -92 1 -2 75 -8
162 -14 88 -6 185 -13 215 -15 30 -2 165 -11 300 -20 135 -8 250 -17 257 -20
6 -2 48 -5 93 -6 l82 -2 4 34 c1 19 8 84 14 144 6 61 15 153 20 205 22 231 30
312 40 415 6 61 13 125 16 143 6 31 5 32 -27 32 -19 1 -122 7 -229 15 -107 8
-330 23 -495 34 -165 11 -312 23 -327 27 -24 5 -28 2 -28 -18z m235 -14 c33
-2 161 -11 285 -19 124 -8 234 -17 245 -19 11 -2 83 -7 160 -11 l140 -8 -40
-18 c-156 -73 -488 -219 -496 -219 -6 0 -93 53 -192 118 -100 65 -206 133
-234 152 -29 18 -53 35 -53 38 0 2 28 1 63 -2 34 -4 89 -9 122 -12z m-116 -56
c420 -270 400 -256 396 -281 -9 -57 -15 -118 -21 -183 -3 -39 -8 -93 -12 -120
l-7 -49 -135 -58 c-74 -32 -151 -64 -170 -71 -19 -7 -84 -34 -144 -60 l-109
-46 7 58 c6 54 23 220 31 306 2 21 7 62 10 90 4 28 8 67 9 86 2 19 6 60 10 90
7 58 10 86 22 218 4 45 9 82 12 82 3 0 48 -28 101 -62z m965 -65 c-2 -32 -11
-128 -19 -213 -8 -85 -20 -204 -26 -265 -5 -60 -14 -146 -19 -189 -6 -44 -10
-100 -11 -125 -1 -90 0 -90 -144 -2 -72 44 -185 112 -252 153 -86 51 -121 78
-118 88 2 8 7 49 10 90 3 41 8 86 10 100 3 14 7 56 11 95 3 38 6 71 7 72 1 1
108 49 237 107 129 59 253 115 275 126 22 10 41 19 41 19 1 1 0 -25 -2 -56z
m-498 -645 c57 -35 128 -78 157 -96 28 -18 87 -53 129 -78 43 -25 80 -50 83
-55 4 -5 -19 -7 -52 -4 -32 2 -114 9 -183 15 -69 5 -206 14 -305 20 -99 6
-200 13 -225 15 -25 2 -90 7 -145 11 -99 7 -100 7 -65 22 70 28 347 145 420
177 41 18 77 34 79 34 2 1 50 -27 107 -61z"/>
<path d="M4105 3040 c-3 -6 1 -7 9 -4 22 9 20 -6 -6 -33 -12 -13 -17 -23 -11
-23 17 0 46 39 40 55 -7 17 -23 20 -32 5z"/>
<path d="M6821 3018 c1 -19 2 -19 6 -5 3 11 11 16 19 13 9 -3 12 -1 9 4 -12
19 -35 10 -34 -12z"/>
<path d="M6375 3010 c-3 -6 1 -7 9 -4 18 7 21 14 7 14 -6 0 -13 -4 -16 -10z"/>
<path d="M8141 3004 c0 -11 3 -14 6 -6 3 7 2 16 -1 19 -3 4 -6 -2 -5 -13z"/>
<path d="M3313 2993 c13 -3 16 -11 11 -31 l-6 -27 16 29 c21 37 21 36 -11 35
-17 -1 -21 -3 -10 -6z"/>
<path d="M6378 2983 c16 -3 22 -10 18 -19 -3 -9 -1 -12 4 -9 21 13 10 35 -17
34 -25 -2 -26 -2 -5 -6z"/>
<path d="M7418 2983 c16 -3 22 -10 18 -19 -3 -9 -1 -12 4 -9 21 13 10 35 -17
34 -25 -2 -26 -2 -5 -6z"/>
<path d="M8281 2951 c-8 -6 -15 -27 -15 -53 -1 -41 0 -43 29 -43 29 0 30 2 28
40 -3 45 -21 69 -42 56z"/>
<path d="M4026 2928 c-13 -52 -8 -68 24 -68 36 0 46 18 33 57 -12 36 -48 43
-57 11z"/>
<path d="M7062 2910 c0 -19 2 -27 5 -17 2 9 2 25 0 35 -3 9 -5 1 -5 -18z"/>
<path d="M7640 2931 c0 -6 7 -8 17 -4 13 5 15 2 11 -15 -4 -12 -2 -25 4 -28 6
-4 8 6 6 22 -3 27 -38 50 -38 25z"/>
<path d="M6625 2910 c-3 -6 1 -7 9 -4 22 9 20 -9 -4 -31 -11 -10 -18 -20 -15
-23 9 -9 45 31 45 50 0 19 -25 25 -35 8z"/>
<path d="M3226 2872 c-2 -4 4 -8 14 -8 10 0 16 4 14 8 -3 4 -9 8 -14 8 -5 0
-11 -4 -14 -8z"/>
<path d="M7330 2866 c0 -2 7 -7 16 -10 8 -3 12 -2 9 4 -6 10 -25 14 -25 6z"/>
<path d="M3220 2839 c0 -4 9 -9 20 -12 12 -3 20 0 20 7 0 6 -9 12 -20 12 -11
0 -20 -3 -20 -7z"/>
<path d="M7318 2833 c7 -3 16 -2 19 1 4 3 -2 6 -13 5 -11 0 -14 -3 -6 -6z"/>
<path d="M7347 2821 c-4 -17 -3 -21 5 -13 5 5 8 16 6 23 -3 8 -7 3 -11 -10z"/>
<path d="M8117 2833 c-2 -5 0 -21 4 -38 7 -29 7 -29 8 8 1 35 -3 46 -12 30z"/>
<path d="M6885 2815 c-3 -8 -7 -22 -10 -30 -2 -8 1 -17 7 -21 6 -4 8 -3 4 4
-3 6 -2 13 3 17 6 3 7 13 4 23 -6 15 -5 15 10 3 15 -12 17 -12 11 3 -8 20 -23
21 -29 1z"/>
<path d="M6318 2808 c9 -9 7 -17 -10 -35 -12 -13 -17 -23 -12 -23 5 0 17 12
27 25 18 25 16 45 -6 45 -8 0 -8 -3 1 -12z"/>
<path d="M8270 2791 c-18 -45 -10 -66 25 -66 28 0 30 3 28 33 -1 31 -17 62
-33 62 -4 0 -13 -13 -20 -29z"/>
<path d="M8090 2800 c0 -5 5 -10 11 -10 5 0 7 5 4 10 -3 6 -8 10 -11 10 -2 0
-4 -4 -4 -10z"/>
<path d="M2975 2790 c-16 -26 -22 -69 -12 -79 17 -17 54 -13 61 6 16 39 -29
105 -49 73z"/>
<path d="M7572 2788 c-15 -15 -16 -45 -2 -53 6 -3 7 1 4 9 -4 10 -1 16 9 16 8
0 18 -6 20 -12 4 -10 6 -10 6 0 1 8 -8 16 -19 19 -11 3 -17 9 -15 14 3 4 13 5
22 2 11 -4 14 -3 9 5 -9 15 -19 15 -34 0z"/>
<path d="M6911 2774 c0 -11 3 -14 6 -6 3 7 2 16 -1 19 -3 4 -6 -2 -5 -13z"/>
<path d="M3138 2753 c-24 -49 -18 -68 22 -68 33 0 35 2 33 33 -1 32 -17 62
-33 62 -5 0 -15 -12 -22 -27z"/>
<path d="M4055 2770 c-3 -6 1 -7 9 -4 23 9 20 -16 -6 -43 -15 -16 -17 -22 -7
-18 21 8 43 50 35 64 -9 14 -23 14 -31 1z"/>
<path d="M4291 2734 c0 -11 3 -14 6 -6 3 7 2 16 -1 19 -3 4 -6 -2 -5 -13z"/>
<path d="M3294 2728 c-4 -7 -3 -8 4 -4 25 16 33 -6 11 -30 -12 -13 -18 -24
-13 -24 5 0 17 12 28 26 15 22 16 28 5 35 -19 12 -26 11 -35 -3z"/>
<path d="M2897 2703 c-20 -43 -11 -73 23 -73 31 0 42 16 33 52 -6 22 -26 48
-37 48 -3 0 -11 -12 -19 -27z"/>
<path d="M6561 2708 c-1 -15 3 -30 9 -33 6 -4 7 1 3 11 -5 14 -2 16 15 12 12
-4 20 -2 16 3 -3 5 -11 9 -19 9 -7 0 -16 6 -18 13 -3 6 -6 0 -6 -15z"/>
<path d="M7145 2721 c-4 -7 0 -8 11 -4 13 5 16 3 11 -10 -3 -9 -2 -17 4 -17
14 0 7 32 -8 37 -6 2 -14 -1 -18 -6z"/>
<path d="M6024 2703 c-10 -11 -31 -28 -46 -38 -28 -17 -38 -58 -18 -70 15 -9
12 -25 -5 -25 -8 0 -15 -7 -15 -15 0 -8 -6 -15 -14 -15 -16 0 -19 -108 -4
-127 7 -9 6 -18 -2 -28 -8 -10 -10 -30 -6 -60 6 -37 13 -48 39 -62 17 -9 41
-16 52 -17 16 -1 21 -10 25 -41 4 -30 7 -35 13 -22 4 10 7 30 7 45 0 20 3 23
12 14 14 -14 58 -16 58 -2 0 5 10 9 23 7 22 -2 22 -1 21 122 -1 97 -4 127 -16
135 -8 6 -13 17 -10 25 2 8 -3 18 -11 23 -9 5 -14 15 -11 22 3 7 -2 16 -12 20
-13 5 -14 9 -4 21 11 13 8 25 -12 50 -4 6 -16 21 -26 34 -19 24 -19 24 -38 4z
m-19 -73 c3 -5 2 -10 -4 -10 -5 0 -13 5 -16 10 -3 6 -2 10 4 10 5 0 13 -4 16
-10z"/>
<path d="M4289 2683 c-15 -40 -8 -67 20 -71 29 -4 42 14 34 48 -13 54 -38 65
-54 23z"/>
<path d="M7405 2660 c0 -16 3 -30 8 -30 4 0 7 14 7 30 0 17 -3 30 -7 30 -5 0
-8 -13 -8 -30z"/>
<path d="M6865 2650 c3 -5 8 -10 11 -10 2 0 4 5 4 10 0 6 -5 10 -11 10 -5 0
-7 -4 -4 -10z"/>
<path d="M6840 2620 c0 -11 4 -22 10 -25 6 -3 7 1 4 9 -4 11 0 16 11 16 12 0
15 -5 10 -17 -5 -14 -3 -15 6 -6 14 14 6 29 -21 36 -15 4 -20 0 -20 -13z"/>
<path d="M7695 2630 c3 -5 8 -10 11 -10 2 0 4 5 4 10 0 6 -5 10 -11 10 -5 0
-7 -4 -4 -10z"/>
<path d="M3065 2619 c4 -6 -4 -23 -16 -37 l-24 -27 28 24 c27 25 36 51 16 51
-5 0 -7 -5 -4 -11z"/>
<path d="M6273 2616 c11 -8 15 -21 11 -32 -3 -11 1 -8 10 6 13 23 13 26 -2 32
-28 11 -38 8 -19 -6z"/>
<path d="M7672 2605 c0 -16 2 -22 5 -12 2 9 2 23 0 30 -3 6 -5 -1 -5 -18z"/>
<path d="M3500 2610 c0 -5 7 -10 15 -10 12 0 13 -4 5 -19 -5 -11 -10 -26 -10
-33 0 -7 8 3 18 22 11 23 14 38 7 42 -15 11 -35 10 -35 -2z"/>
<path d="M4137 2572 c-18 -38 -6 -72 27 -72 29 0 36 21 22 68 -12 39 -30 41
-49 4z"/>
<path d="M3383 2563 c-19 -39 -16 -52 12 -65 37 -17 51 1 39 49 -11 46 -35 53
-51 16z"/>
<path d="M3177 2566 c-3 -8 -2 -27 3 -43 8 -26 8 -25 9 15 1 43 -3 52 -12 28z"/>
<path d="M3874 2549 c-5 -9 -2 -10 9 -6 24 9 22 -16 -3 -38 -11 -10 -18 -20
-16 -22 9 -9 47 39 44 54 -4 21 -24 28 -34 12z"/>
<path d="M7172 2553 c9 -2 19 -12 21 -21 3 -12 5 -10 6 6 1 17 -4 22 -21 21
-16 -1 -18 -3 -6 -6z"/>
<path d="M7510 2545 c-8 -10 -9 -15 -2 -15 6 0 9 -6 6 -14 -3 -8 -1 -17 5 -21
7 -4 11 7 11 29 0 40 -2 42 -20 21z"/>
<path d="M3150 2530 c0 -5 5 -10 11 -10 5 0 7 5 4 10 -3 6 -8 10 -11 10 -2 0
-4 -4 -4 -10z"/>
<path d="M6517 2533 c-12 -12 -7 -21 16 -26 20 -6 21 -5 4 8 -18 13 -18 13 0
18 14 4 14 5 2 6 -9 0 -19 -2 -22 -6z"/>
<path d="M4290 2520 c8 -5 20 -10 25 -10 6 0 3 5 -5 10 -8 5 -19 10 -25 10 -5
0 -3 -5 5 -10z"/>
<path d="M2755 2497 c-9 -14 -15 -36 -13 -49 2 -18 9 -23 33 -23 28 0 30 3 28
34 0 18 -8 40 -16 48 -13 14 -17 12 -32 -10z"/>
<path d="M2932 2465 c0 -16 2 -22 5 -12 2 9 2 23 0 30 -3 6 -5 -1 -5 -18z"/>
<path d="M4306 2473 c-6 -14 -5 -15 5 -6 7 7 10 15 7 18 -3 3 -9 -2 -12 -12z"/>
<path d="M2957 2471 c6 -7 9 -20 6 -27 -3 -8 -3 -14 0 -14 14 0 14 30 -1 41
-14 11 -15 11 -5 0z"/>
<path d="M8250 2461 c-17 -33 -12 -68 11 -74 46 -12 57 6 38 62 -12 35 -33 40
-49 12z"/>
<path d="M3517 2411 c3 -13 -1 -20 -14 -23 -15 -3 -15 -5 5 -10 18 -5 22 -2
22 17 0 13 -4 26 -9 29 -5 4 -7 -3 -4 -13z"/>
<path d="M4132 2403 c-27 -49 -8 -95 32 -80 24 10 29 32 14 63 -16 34 -34 41
-46 17z"/>
<path d="M8088 2415 c-8 -8 3 -55 13 -55 5 0 9 14 9 30 0 28 -9 38 -22 25z"/>
<path d="M2686 2394 c-3 -9 -6 -29 -6 -45 0 -26 4 -29 30 -29 23 0 30 5 30 19
0 54 -39 94 -54 55z"/>
<path d="M3165 2384 c-25 -39 -16 -68 23 -72 28 -3 32 0 32 20 -1 66 -28 92
-55 52z"/>
<path d="M3740 2400 c0 -5 9 -19 20 -30 16 -16 20 -17 20 -5 0 9 -8 19 -17 22
-15 6 -15 7 3 14 17 7 17 8 -3 8 -13 1 -23 -3 -23 -9z"/>
<path d="M6355 2400 c3 -5 8 -10 11 -10 2 0 4 5 4 10 0 6 -5 10 -11 10 -5 0
-7 -4 -4 -10z"/>
<path d="M6327 2393 c-4 -3 -7 -13 -7 -21 0 -18 13 -7 16 13 2 17 1 18 -9 8z"/>
<path d="M6354 2361 c0 -11 4 -17 8 -15 4 3 8 12 8 20 0 8 -4 14 -8 14 -4 0
-8 -9 -8 -19z"/>
<path d="M7915 2364 c-10 -10 -15 -29 -13 -48 2 -26 8 -32 31 -34 34 -4 43 15
27 63 -13 39 -21 43 -45 19z"/>
<path d="M3375 2350 c-3 -6 1 -7 9 -4 21 8 20 -14 -1 -40 -16 -19 -15 -19 6 1
15 13 21 28 18 37 -7 18 -23 21 -32 6z"/>
<path d="M4006 2333 c-6 -14 -5 -15 5 -6 7 7 10 15 7 18 -3 3 -9 -2 -12 -12z"/>
<path d="M8235 2320 c-21 -41 -19 -57 11 -64 49 -13 68 38 32 81 -16 20 -26
16 -43 -17z"/>
<path d="M4267 2312 c7 -4 17 -19 22 -32 l11 -25 -3 25 c-2 25 -14 40 -32 40
-5 0 -5 -4 2 -8z"/>
<path d="M2804 2298 c-4 -6 -3 -8 4 -4 20 12 22 -11 2 -29 -11 -10 -20 -22
-20 -28 0 -5 11 1 25 14 13 13 25 29 25 35 0 16 -28 25 -36 12z"/>
<path d="M6495 2289 c-5 -8 -1 -9 15 -4 18 6 22 4 17 -7 -3 -8 -1 -21 4 -29 7
-10 9 -6 7 16 -3 31 -30 46 -43 24z"/>
<path d="M3236 2274 c-9 -23 -7 -34 4 -34 5 0 7 7 4 15 -4 10 0 15 11 15 9 0
13 5 10 10 -9 15 -22 12 -29 -6z"/>
<path d="M3012 2264 c9 -3 19 -13 22 -22 3 -12 4 -12 3 3 -1 12 -10 21 -22 22
-15 1 -15 0 -3 -3z"/>
<path d="M3270 2260 c-8 -26 -7 -41 2 -32 6 6 8 16 5 24 -3 7 -6 11 -7 8z"/>
<path d="M3477 2254 c-10 -11 -8 -34 3 -34 5 0 7 7 4 15 -4 8 -1 15 4 15 6 0
13 -7 15 -15 4 -12 5 -11 3 1 -1 19 -18 29 -29 18z"/>
<path d="M7901 2241 c-25 -25 -28 -66 -5 -75 46 -17 66 -1 57 47 -8 42 -28 52
-52 28z"/>
<path d="M3847 2243 c-3 -5 6 -9 20 -10 19 -1 22 1 12 8 -17 11 -26 11 -32 2z"/>
<path d="M4119 2223 c-16 -43 -8 -68 24 -71 28 -3 31 2 27 48 -2 27 -17 50
-31 50 -5 0 -14 -12 -20 -27z"/>
<path d="M3855 2200 c-10 -11 -14 -20 -9 -20 5 0 15 9 22 20 7 11 11 20 9 20
-2 0 -12 -9 -22 -20z"/>
<path d="M6302 2190 c1 -16 5 -30 10 -30 4 0 8 14 8 30 0 17 -4 30 -9 30 -5 0
-9 -13 -9 -30z"/>
<path d="M8236 2189 c-34 -50 -10 -102 39 -83 13 6 16 14 11 42 -3 20 -12 42
-19 50 -13 12 -17 11 -31 -9z"/>
<path d="M6275 2180 c-3 -5 -1 -10 4 -10 6 0 11 5 11 10 0 6 -2 10 -4 10 -3 0
-8 -4 -11 -10z"/>
<path d="M7884 2106 c-25 -39 -15 -70 24 -74 28 -3 32 0 32 22 0 32 -17 76
-30 76 -5 0 -17 -11 -26 -24z"/>
<path d="M2411 2062 c-5 -10 -21 -24 -35 -32 -20 -10 -26 -21 -26 -47 0 -18 5
-33 10 -33 18 0 10 -18 -10 -23 -11 -3 -20 -12 -20 -21 0 -10 -6 -13 -15 -10
-18 7 -21 -26 -3 -44 9 -9 8 -16 -5 -29 -14 -17 -14 -20 3 -43 17 -23 17 -26
3 -42 -39 -43 18 -142 77 -136 22 3 25 -1 28 -35 4 -44 22 -40 22 4 0 22 4 28
13 22 16 -10 50 -4 60 11 5 8 9 8 15 -1 4 -7 13 -9 20 -4 8 5 11 41 8 130 -3
100 -6 125 -19 133 -10 5 -14 15 -10 25 4 9 -1 19 -11 25 -13 8 -15 13 -5 24
9 11 7 14 -10 14 -21 0 -28 14 -12 24 14 9 8 29 -17 60 -12 16 -22 33 -22 37
0 16 -29 9 -39 -9z m-16 -72 c3 -5 2 -10 -4 -10 -5 0 -13 5 -16 10 -3 6 -2 10
4 10 5 0 13 -4 16 -10z"/>
<path d="M8070 1980 c0 -16 5 -30 10 -30 6 0 10 14 10 30 0 17 -4 30 -10 30
-5 0 -10 -13 -10 -30z"/>
<path d="M2635 1971 c-3 -7 0 -8 9 -5 10 4 16 -3 19 -23 l5 -28 -2 29 c-1 30
-19 45 -31 27z"/>
<path d="M7873 1946 c-20 -44 -12 -66 26 -66 34 0 44 18 30 59 -15 44 -37 47
-56 7z"/>
<path d="M8045 1970 c3 -5 8 -10 11 -10 2 0 4 5 4 10 0 6 -5 10 -11 10 -5 0
-7 -4 -4 -10z"/>
<path d="M2880 1960 c0 -5 5 -10 11 -10 5 0 7 5 4 10 -3 6 -8 10 -11 10 -2 0
-4 -4 -4 -10z"/>
<path d="M2860 1926 c0 -14 4 -27 8 -30 5 -3 6 8 4 25 -5 35 -12 38 -12 5z"/>
<path d="M3116 1915 c-3 -10 1 -15 14 -15 10 0 21 -8 23 -17 4 -17 5 -17 6 0
0 10 -7 21 -16 24 -15 6 -15 7 3 14 18 7 18 8 -2 8 -12 1 -24 -6 -28 -14z"/>
<path d="M3389 1898 c-6 -21 -5 -38 1 -38 5 0 8 9 7 20 -1 17 -5 26 -8 18z"/>
<path d="M3410 1887 c0 -9 4 -18 9 -21 5 -4 8 1 7 9 -3 21 -16 31 -16 12z"/>
<path d="M3747 1893 c-13 -12 -7 -23 12 -23 11 0 22 -8 24 -17 4 -17 5 -17 6
0 0 10 -6 20 -15 24 -13 5 -13 7 -2 14 10 7 10 9 -3 9 -9 0 -19 -3 -22 -7z"/>
<path d="M4270 1879 c0 -5 5 -9 10 -9 6 0 8 -12 4 -27 l-6 -28 16 29 c21 37
20 41 -4 43 -11 1 -20 -2 -20 -8z"/>
<path d="M3300 1841 c-17 -33 -12 -68 11 -74 45 -12 60 13 39 67 -11 31 -35
34 -50 7z"/>
<path d="M4041 1838 c1 -19 2 -19 6 -5 3 11 11 16 19 13 9 -3 12 -1 9 4 -12
19 -35 10 -34 -12z"/>
<path d="M3954 1828 c-19 -43 -12 -63 22 -66 36 -4 46 12 35 55 -10 36 -44 43
-57 11z"/>
<path d="M7876 1828 c-9 -12 -16 -35 -16 -51 0 -26 3 -28 33 -25 29 3 32 6 31
35 -1 18 -9 39 -17 48 -14 14 -17 13 -31 -7z"/>
<path d="M5925 1817 c-12 -12 -28 -26 -37 -32 -22 -14 -33 -75 -13 -75 8 0 15
-4 15 -10 0 -5 -9 -10 -20 -10 -11 0 -20 -7 -20 -15 0 -8 -7 -15 -15 -15 -18
0 -19 -14 -4 -42 8 -16 8 -22 -2 -29 -11 -7 -11 -14 -1 -41 8 -21 8 -36 2 -42
-13 -13 -13 -76 0 -76 5 0 7 -6 4 -14 -7 -18 52 -51 84 -47 19 2 22 -2 22 -33
0 -20 5 -36 10 -36 6 0 10 16 10 35 0 19 5 35 10 35 6 0 10 -4 10 -10 0 -16
50 -11 56 5 5 12 10 13 20 4 25 -21 31 20 22 170 -3 52 -10 86 -18 91 -7 4
-10 15 -6 25 4 12 0 18 -14 22 -16 4 -18 8 -9 19 9 11 8 14 -6 14 -13 0 -15 6
-10 29 5 22 1 35 -13 49 -10 10 -21 26 -25 35 -9 23 -28 21 -52 -6z m-5 -67
c0 -5 -7 -7 -15 -4 -8 4 -15 8 -15 10 0 2 7 4 15 4 8 0 15 -4 15 -10z"/>
<path d="M3130 1801 c-17 -34 -12 -69 12 -77 31 -10 49 18 37 59 -5 18 -9 33
-9 34 0 12 -32 -1 -40 -16z"/>
<path d="M8045 1810 c-3 -5 -1 -10 4 -10 6 0 11 5 11 10 0 6 -2 10 -4 10 -3 0
-8 -4 -11 -10z"/>
<path d="M4558 1803 c-2 -4 -5 -21 -6 -38 -3 -51 -40 -404 -72 -700 -6 -49
-13 -123 -17 -162 -6 -72 -6 -73 18 -73 13 -1 116 -7 229 -15 113 -8 315 -21
450 -30 233 -16 246 -18 269 -40 21 -21 23 -26 10 -41 -15 -19 -22 -74 -8 -74
5 0 6 -6 3 -14 -7 -18 62 -59 87 -51 16 5 19 1 19 -29 0 -20 5 -36 10 -36 6 0
10 16 10 35 0 19 5 35 10 35 6 0 10 -4 10 -10 0 -12 43 -14 54 -3 4 4 15 8 24
8 10 0 19 12 23 35 4 19 6 37 4 41 -2 3 -7 46 -10 94 -3 49 -11 92 -17 96 -6
4 -8 15 -4 24 4 12 0 18 -13 22 -12 3 -17 11 -14 19 3 8 0 14 -6 14 -7 0 -9 9
-6 23 4 15 -1 32 -15 50 -12 15 -17 27 -12 27 5 0 12 42 15 93 4 50 11 137 17
192 10 92 21 212 36 373 5 55 4 62 -13 62 -10 0 -110 7 -223 15 -113 8 -304
21 -425 30 -297 20 -354 25 -396 31 -21 3 -39 2 -41 -3z m197 -23 c61 -5 207
-16 325 -25 224 -15 305 -21 453 -33 l88 -7 -198 -87 c-109 -48 -230 -101
-269 -119 l-72 -32 -133 86 c-209 133 -302 194 -324 211 l-20 15 20 0 c11 0
70 -4 130 -9z m74 -160 l241 -155 -5 -45 c-2 -25 -9 -101 -16 -170 -6 -69 -12
-134 -14 -145 -3 -15 -35 -33 -132 -74 -70 -29 -195 -82 -278 -117 -82 -34
-150 -62 -151 -61 -3 2 16 185 46 452 17 148 30 274 40 375 5 52 9 97 10 98 0
8 28 -9 259 -158z m807 3 c-4 -43 -11 -118 -16 -168 -5 -49 -14 -137 -19 -195
-6 -58 -13 -136 -17 -175 -4 -38 -9 -64 -11 -57 -7 18 -31 15 -42 -6 -5 -10
-21 -24 -34 -31 -31 -17 -41 -60 -20 -83 15 -16 15 -18 -1 -18 -10 0 -20 -9
-23 -20 -7 -26 -17 -21 -232 110 l-172 105 6 55 c3 30 10 100 15 155 17 172
11 160 104 204 44 22 128 59 186 84 58 25 141 61 185 81 44 19 84 36 89 36 4
0 5 -35 2 -77z m-409 -667 c238 -145 265 -181 128 -172 -33 3 -167 12 -297 21
-131 8 -263 17 -295 19 -32 2 -104 7 -161 11 l-103 8 128 54 c70 30 148 62
173 73 25 10 88 36 140 58 52 22 96 41 97 41 2 1 87 -50 190 -113z m293 -6 c0
-5 -7 -7 -15 -4 -8 4 -15 8 -15 10 0 2 7 4 15 4 8 0 15 -4 15 -10z"/>
<path d="M4200 1780 c-6 -11 -10 -33 -8 -48 2 -21 9 -28 31 -30 33 -4 41 13
29 59 -10 40 -36 49 -52 19z"/>
<path d="M2725 1780 c-3 -6 1 -7 9 -4 21 8 21 -19 1 -36 -9 -7 -13 -15 -10
-18 8 -8 34 30 35 51 0 18 -25 24 -35 7z"/>
<path d="M8074 1770 c0 -13 4 -16 10 -10 7 7 7 13 0 20 -6 6 -10 3 -10 -10z"/>
<path d="M2952 1750 c-20 -44 -12 -64 26 -68 25 -3 32 1 33 15 5 77 -34 111
-59 53z"/>
<path d="M3705 1770 c-4 -7 -2 -17 4 -23 9 -9 11 -8 6 6 -5 12 -2 17 10 17 11
0 15 -5 12 -15 -4 -8 -1 -17 4 -21 7 -4 9 3 7 17 -3 26 -32 37 -43 19z"/>
<path d="M3430 1756 c-15 -19 -5 -36 21 -36 22 0 25 22 5 39 -10 9 -16 8 -26
-3z m21 -19 c-13 -13 -26 -3 -16 12 3 6 11 8 17 5 6 -4 6 -10 -1 -17z"/>
<path d="M3845 1710 c-3 -6 1 -7 9 -4 21 8 20 -14 -1 -40 -10 -12 -4 -9 11 5
28 26 28 49 1 49 -8 0 -17 -4 -20 -10z"/>
<path d="M4051 1696 c-21 -38 -11 -61 28 -64 l33 -3 -7 38 c-4 21 -9 41 -11
45 -10 15 -31 8 -43 -16z"/>
<path d="M3308 1678 c-3 -7 -1 -24 3 -38 6 -22 7 -20 8 13 1 38 -3 47 -11 25z"/>
<path d="M4241 1671 c-14 -25 -14 -42 0 -18 12 20 34 23 26 4 -3 -8 -1 -20 4
-28 6 -10 9 -7 9 12 0 38 -25 57 -39 30z"/>
<path d="M6120 1680 c8 -5 20 -10 25 -10 6 0 3 5 -5 10 -8 5 -19 10 -25 10 -5
0 -3 -5 5 -10z"/>
<path d="M3280 1639 c0 -5 5 -7 10 -4 6 3 10 8 10 11 0 2 -4 4 -10 4 -5 0 -10
-5 -10 -11z"/>
<path d="M3692 1626 c13 -14 28 -12 28 5 0 5 -9 9 -20 9 -17 0 -19 -2 -8 -14z"/>
<path d="M6300 1630 c0 -5 -16 -20 -35 -32 -28 -19 -35 -29 -35 -55 0 -18 5
-33 10 -33 6 0 10 -5 10 -11 0 -5 -4 -8 -9 -4 -5 3 -17 -5 -25 -17 -9 -12 -16
-18 -16 -13 0 6 -5 2 -11 -7 -7 -12 -6 -25 2 -40 9 -16 9 -23 0 -26 -16 -5
-14 -33 5 -54 14 -15 15 -20 3 -34 -39 -47 21 -147 86 -141 16 2 21 -5 23 -31
4 -40 22 -32 22 11 0 24 3 28 12 19 17 -17 58 -15 58 3 0 8 -5 15 -12 15 -6 0
-8 3 -5 7 4 3 16 -2 26 -11 23 -21 38 -15 40 16 0 13 2 44 3 69 3 38 0 45 -12
41 -12 -5 -13 -3 -3 9 14 17 6 98 -12 119 -7 8 -10 21 -8 27 3 7 -2 16 -11 19
-8 3 -12 12 -9 20 3 8 0 14 -6 14 -6 0 -11 15 -11 34 0 19 -5 38 -11 41 -5 4
-14 18 -19 31 -9 23 -50 35 -50 14z m-16 -79 c4 -5 -3 -7 -14 -4 -23 6 -26 13
-6 13 8 0 17 -4 20 -9z"/>
<path d="M2829 1620 c-7 -20 5 -68 14 -54 3 6 3 24 -2 39 -5 19 -9 24 -12 15z"/>
<path d="M6436 1613 c-6 -14 -5 -15 5 -6 7 7 10 15 7 18 -3 3 -9 -2 -12 -12z"/>
<path d="M2960 1600 c-19 -35 -9 -65 23 -68 32 -4 40 11 29 53 -10 36 -36 44
-52 15z"/>
<path d="M3423 1586 c11 -8 15 -21 11 -32 -3 -11 1 -9 10 6 21 35 20 40 -11
40 -26 -1 -26 -2 -10 -14z"/>
<path d="M3160 1563 c-6 -15 -12 -33 -15 -39 -10 -29 60 -49 71 -20 3 7 1 29
-4 47 -11 44 -38 50 -52 12z"/>
<path d="M2305 1569 c-4 -5 -1 -8 6 -7 6 2 14 -3 17 -11 3 -10 -1 -13 -17 -8
-11 3 -19 2 -16 -3 3 -4 14 -10 25 -13 16 -4 20 0 20 18 0 24 -25 41 -35 24z"/>
<path d="M4180 1560 c-6 -12 -10 -33 -8 -48 2 -21 9 -28 31 -30 34 -4 43 15
27 63 -13 39 -34 45 -50 15z"/>
<path d="M3724 1562 c-6 -4 -10 -15 -8 -24 1 -10 -2 -18 -7 -18 -17 0 -9 -39
10 -50 34 -18 54 -2 47 38 -6 40 -26 65 -42 54z"/>
<path d="M6189 1553 c-6 -34 -5 -54 2 -59 5 -3 9 11 9 30 0 31 -8 50 -11 29z"/>
<path d="M3968 1544 c-2 -5 -2 -22 2 -39 4 -24 7 -26 12 -13 8 19 -5 68 -14
52z"/>
<path d="M2515 1520 c-3 -6 1 -7 9 -4 25 9 19 -22 -6 -40 -15 -11 -17 -16 -8
-16 8 0 23 12 34 26 15 22 16 28 5 35 -18 11 -26 11 -34 -1z"/>
<path d="M3940 1510 c0 -5 5 -10 11 -10 5 0 7 5 4 10 -3 6 -8 10 -11 10 -2 0
-4 -4 -4 -10z"/>
<path d="M2690 1489 c0 -5 4 -8 9 -4 5 3 12 1 15 -4 4 -5 2 -12 -4 -16 -5 -3
-10 -14 -10 -23 0 -11 6 -6 15 12 20 38 19 46 -5 46 -11 0 -20 -5 -20 -11z"/>
<path d="M2915 1460 c-3 -5 1 -10 10 -10 10 0 15 -6 12 -13 -3 -8 -1 -20 4
-28 6 -10 9 -7 9 12 0 30 -24 57 -35 39z"/>
<path d="M2073 1432 c-16 -10 -35 -62 -29 -79 7 -18 51 -17 66 2 10 12 10 18
-1 32 -12 15 -12 16 1 8 9 -5 7 1 -5 16 -11 13 -20 25 -20 26 0 1 -6 -1 -12
-5z"/>
<path d="M3119 1410 c-6 -30 -4 -52 5 -57 6 -3 8 -3 4 2 -4 4 -4 13 2 19 5 7
5 17 0 26 -6 8 -10 13 -11 10z"/>
<path d="M4211 1384 c0 -11 3 -14 6 -6 3 7 2 16 -1 19 -3 4 -6 -2 -5 -13z"/>
<path d="M3151 1364 c0 -11 3 -14 6 -6 3 7 2 16 -1 19 -3 4 -6 -2 -5 -13z"/>
<path d="M2126 1352 c-2 -4 4 -8 14 -8 10 0 16 4 14 8 -3 4 -9 8 -14 8 -5 0
-11 -4 -14 -8z"/>
<path d="M4118 1352 c-9 -2 -20 -12 -23 -23 -4 -10 -13 -19 -20 -19 -22 0 -48
-46 -40 -70 3 -11 11 -20 16 -20 6 0 7 -5 4 -10 -4 -6 -11 -8 -16 -4 -6 3 -13
-3 -16 -14 -3 -14 -10 -19 -21 -15 -13 5 -14 0 -9 -32 4 -23 2 -44 -5 -52 -8
-10 -5 -19 12 -38 22 -23 22 -26 7 -38 -11 -8 -15 -22 -13 -42 2 -16 4 -38 5
-47 1 -20 50 -48 89 -51 24 -2 27 -6 24 -35 -4 -40 13 -43 21 -4 5 22 11 28
29 27 13 -1 29 0 36 3 18 6 15 22 -5 22 -14 0 -15 2 -4 13 10 10 15 8 26 -7 9
-11 20 -16 31 -12 11 4 15 2 11 -8 -3 -8 1 -20 9 -26 20 -17 17 -30 -6 -30
-13 0 -20 -7 -20 -20 0 -13 -5 -18 -15 -14 -18 7 -21 -26 -3 -44 9 -9 7 -13
-5 -18 -22 -8 -22 -32 0 -56 14 -16 14 -20 1 -35 -25 -30 -5 -99 35 -120 17
-9 41 -16 52 -17 15 -1 21 -9 23 -33 4 -41 22 -44 22 -4 0 28 2 29 35 24 27
-4 35 -2 35 10 0 8 -6 18 -12 20 -9 4 -10 6 -1 6 6 1 19 -6 28 -15 24 -24 33
-8 37 69 2 54 0 66 -11 62 -11 -4 -11 -2 -2 9 13 16 4 116 -10 116 -5 0 -9 11
-9 25 0 14 -4 25 -10 25 -5 0 -10 7 -10 15 0 8 -5 15 -10 15 -6 0 -8 10 -5 23
4 14 -1 32 -13 47 -10 14 -21 33 -25 43 -9 24 -43 22 -50 -4 -3 -12 -10 -18
-16 -14 -6 3 -11 3 -11 -2 0 -4 -12 -13 -26 -20 -22 -10 -24 -10 -14 2 8 10 9
27 3 57 -5 24 -8 71 -6 106 2 51 -1 62 -14 62 -11 0 -14 6 -10 21 4 15 0 23
-14 26 -15 4 -17 8 -8 19 9 11 8 14 -6 14 -14 0 -16 5 -11 26 5 17 2 32 -7 43
-8 9 -21 27 -28 41 -9 16 -21 25 -31 22z m-28 -93 c0 -4 -7 -6 -15 -3 -8 4
-15 10 -15 15 0 4 7 6 15 3 8 -4 15 -10 15 -15z m220 -380 c0 -4 -7 -6 -15 -3
-8 4 -15 10 -15 15 0 4 7 6 15 3 8 -4 15 -10 15 -15z m60 -69 c0 -5 -5 -10
-11 -10 -5 0 -7 5 -4 10 3 6 8 10 11 10 2 0 4 -4 4 -10z"/>
<path d="M2209 1331 c-10 -11 -15 -29 -12 -45 4 -21 11 -26 35 -26 28 0 29 1
26 42 -3 48 -23 60 -49 29z"/>
<path d="M1980 1311 c-17 -42 -10 -65 23 -69 34 -4 43 15 27 63 -14 43 -33 45
-50 6z"/>
<path d="M6112 1310 c1 -16 5 -30 10 -30 4 0 8 14 8 30 0 17 -4 30 -9 30 -5 0
-9 -13 -9 -30z"/>
<path d="M8238 1335 c-8 -8 3 -55 13 -55 5 0 9 14 9 30 0 28 -9 38 -22 25z"/>
<path d="M2145 1321 c-3 -5 -1 -12 5 -16 5 -3 10 1 10 9 0 18 -6 21 -15 7z"/>
<path d="M2590 1310 c0 -5 7 -10 15 -10 12 0 13 -4 5 -19 -17 -33 -11 -38 9
-6 10 17 16 33 14 38 -6 11 -43 9 -43 -3z"/>
<path d="M8432 1290 c0 -16 4 -30 9 -30 5 0 9 14 9 30 0 17 -4 30 -8 30 -5 0
-9 -13 -10 -30z"/>
<path d="M2410 1300 c-12 -8 -10 -10 8 -10 13 0 20 4 17 10 -7 12 -6 12 -25 0z"/>
<path d="M6085 1300 c-3 -5 -1 -10 4 -10 6 0 11 5 11 10 0 6 -2 10 -4 10 -3 0
-8 -4 -11 -10z"/>
<path d="M8215 1300 c3 -5 8 -10 11 -10 2 0 4 5 4 10 0 6 -5 10 -11 10 -5 0
-7 -4 -4 -10z"/>
<path d="M2740 1280 c-18 -34 -9 -65 21 -68 31 -4 41 14 30 55 -9 35 -36 42
-51 13z"/>
<path d="M2086 1283 c-3 -4 -6 -15 -6 -25 0 -10 -5 -18 -11 -18 -6 0 -9 -10
-7 -22 2 -18 11 -24 36 -26 35 -4 37 1 26 56 -6 29 -25 47 -38 35z"/>
<path d="M2390 1270 c0 -5 3 -9 8 -9 23 4 34 -3 28 -17 -3 -8 -2 -12 4 -9 15
9 12 32 -6 39 -23 9 -34 7 -34 -4z"/>
<path d="M2952 1261 c-7 -4 -15 -24 -19 -44 -4 -29 -2 -38 12 -43 28 -11 50
10 47 42 -4 35 -22 56 -40 45z"/>
<path d="M2850 1249 c-12 -8 -9 -9 9 -4 19 6 23 4 18 -7 -3 -8 -1 -21 4 -29 7
-10 9 -6 7 15 -3 33 -16 41 -38 25z"/>
<path d="M8168 1244 c-8 -14 7 -61 15 -47 4 6 3 21 -1 34 -5 12 -11 18 -14 13z"/>
<path d="M3154 1215 c-23 -36 -15 -60 21 -60 23 0 31 5 33 22 4 25 -14 63 -28
63 -5 0 -17 -11 -26 -25z"/>
<path d="M2210 1205 c-18 -48 -13 -65 19 -65 33 0 43 17 32 57 -10 37 -38 42
-51 8z"/>
<path d="M5876 1213 c-6 -14 -5 -15 5 -6 7 7 10 15 7 18 -3 3 -9 -2 -12 -12z"/>
<path d="M1911 1206 c-7 -8 -16 -28 -21 -44 -6 -24 -5 -32 7 -36 42 -16 76 5
57 36 -5 7 -9 18 -10 23 0 6 -2 16 -2 23 -2 16 -17 15 -31 -2z"/>
<path d="M8140 1210 c0 -5 5 -10 10 -10 6 0 10 5 10 10 0 6 -4 10 -10 10 -5 0
-10 -4 -10 -10z"/>
<path d="M3055 1201 c-3 -5 -1 -12 5 -16 5 -3 10 1 10 9 0 18 -6 21 -15 7z"/>
<path d="M3086 1184 c7 -37 16 -47 12 -12 -2 15 -7 30 -11 34 -3 3 -4 -6 -1
-22z"/>
<path d="M2012 1166 c11 -8 15 -21 12 -37 -5 -22 -4 -21 10 5 22 39 20 46 -11
46 -25 -1 -26 -2 -11 -14z"/>
<path d="M2641 1143 c-12 -33 -12 -38 5 -50 42 -31 72 -2 54 52 -16 47 -42 46
-59 -2z"/>
<path d="M8505 1130 c0 -16 3 -30 8 -30 4 0 7 14 7 30 0 17 -3 30 -7 30 -5 0
-8 -13 -8 -30z"/>
<path d="M1845 1096 c-9 -14 -15 -37 -13 -53 2 -22 9 -29 31 -31 34 -4 42 13
27 67 -12 47 -23 51 -45 17z"/>
<path d="M2223 1100 c-7 -11 -13 -31 -13 -45 0 -21 5 -25 29 -25 33 0 43 17
32 57 -9 34 -32 41 -48 13z"/>
<path d="M6099 1118 c-7 -15 -6 -58 2 -58 5 0 9 14 9 30 0 25 -6 39 -11 28z"/>
<path d="M8240 1080 c0 -16 5 -30 10 -30 6 0 10 14 10 30 0 17 -4 30 -10 30
-5 0 -10 -13 -10 -30z"/>
<path d="M2458 1088 c9 -9 6 -18 -16 -41 -15 -15 -20 -26 -12 -22 38 15 60 75
27 75 -8 0 -8 -3 1 -12z"/>
<path d="M6065 1080 c-3 -5 -1 -10 4 -10 6 0 11 5 11 10 0 6 -2 10 -4 10 -3 0
-8 -4 -11 -10z"/>
<path d="M3190 1051 c-17 -33 -12 -68 11 -74 38 -10 51 2 44 42 -4 20 -9 39
-11 43 -9 15 -33 8 -44 -11z"/>
<path d="M2660 1041 c-26 -50 -1 -92 45 -75 13 6 16 14 11 42 -8 50 -37 67
-56 33z"/>
<path d="M5826 1052 c-3 -4 4 -9 15 -9 23 -2 25 3 4 10 -8 4 -16 3 -19 -1z"/>
<path d="M2888 1038 c-3 -7 -1 -24 3 -38 6 -22 7 -20 8 13 1 38 -3 47 -11 25z"/>
<path d="M7953 1015 c0 -22 2 -30 4 -17 2 12 2 30 0 40 -3 9 -5 -1 -4 -23z"/>
<path d="M3832 1020 c-6 -11 -12 -31 -12 -45 0 -21 5 -25 29 -25 35 0 44 19
30 60 -13 35 -29 38 -47 10z"/>
<path d="M2091 1021 c-1 -8 -11 -25 -23 -38 -12 -13 -17 -23 -11 -23 15 0 45
49 39 63 -3 8 -5 7 -5 -2z"/>
<path d="M2231 996 c-7 -8 -13 -27 -14 -43 -2 -25 2 -28 32 -31 l33 -3 -7 38
c-10 57 -21 67 -44 39z"/>
<path d="M2860 999 c0 -5 5 -7 10 -4 6 3 10 8 10 11 0 2 -4 4 -10 4 -5 0 -10
-5 -10 -11z"/>
<path d="M1755 970 c-22 -42 -19 -59 12 -66 44 -11 64 41 30 84 -15 19 -25 15
-42 -18z"/>
<path d="M1950 964 c-20 -52 -4 -83 35 -68 22 9 23 72 1 86 -19 13 -26 9 -36
-18z"/>
<path d="M3027 963 c-22 -45 -16 -68 17 -71 16 -2 32 2 37 10 14 23 -9 88 -32
88 -5 0 -15 -12 -22 -27z"/>
<path d="M7688 960 c2 -16 6 -30 8 -30 2 0 4 14 4 30 0 17 -4 30 -8 30 -5 0
-7 -13 -4 -30z"/>
<path d="M3690 954 c-17 -43 -12 -63 16 -70 39 -10 50 8 35 56 -14 46 -37 53
-51 14z"/>
<path d="M2678 928 c-7 -13 -12 -33 -10 -45 3 -18 10 -23 33 -23 25 0 29 4 29
29 0 61 -26 80 -52 39z"/>
<path d="M2810 940 c0 -5 5 -10 11 -10 5 0 7 5 4 10 -3 6 -8 10 -11 10 -2 0
-4 -4 -4 -10z"/>
<path d="M2953 943 c-15 -6 -17 -49 -3 -58 6 -3 7 1 4 9 -4 11 0 16 11 16 12
0 15 -5 10 -17 -5 -14 -3 -15 6 -6 14 14 4 33 -17 33 -8 0 -12 5 -9 11 4 6 14
8 22 5 8 -3 11 -1 8 4 -7 11 -13 11 -32 3z"/>
<path d="M2462 933 c15 -4 16 -8 7 -25 -6 -11 -8 -22 -6 -24 3 -3 12 9 20 25
15 31 15 31 -11 30 -17 -1 -21 -3 -10 -6z"/>
<path d="M2790 909 c0 -5 5 -7 10 -4 6 3 10 8 10 11 0 2 -4 4 -10 4 -5 0 -10
-5 -10 -11z"/>
<path d="M3330 906 c0 -8 4 -18 10 -21 5 -3 7 0 4 9 -3 8 2 16 13 19 14 4 14
5 -4 6 -14 1 -23 -5 -23 -13z"/>
<path d="M7370 891 c0 -17 4 -31 9 -31 5 0 9 11 9 25 0 14 -4 28 -9 31 -5 3
-9 -9 -9 -25z"/>
<path d="M2821 894 c0 -11 3 -14 6 -6 3 7 2 16 -1 19 -3 4 -6 -2 -5 -13z"/>
<path d="M1836 885 c-3 -9 0 -12 10 -8 21 8 17 -7 -8 -34 -12 -13 -17 -23 -12
-23 13 0 44 38 44 54 0 19 -27 28 -34 11z"/>
<path d="M3157 883 c8 -3 11 -15 7 -31 l-6 -27 16 29 c20 36 20 36 -6 35 -13
0 -17 -3 -11 -6z"/>
<path d="M6057 884 c-3 -6 -3 -24 2 -39 4 -16 10 -24 14 -19 3 6 3 24 -2 39
-4 16 -10 24 -14 19z"/>
<path d="M1704 872 c-33 -22 -45 -91 -16 -93 46 -3 66 12 52 40 -4 9 -12 26
-16 38 -5 13 -14 19 -20 15z"/>
<path d="M7092 840 c0 -19 2 -27 5 -17 2 9 2 25 0 35 -3 9 -5 1 -5 -18z"/>
<path d="M2136 852 c-6 -10 -2 -39 7 -48 4 -4 7 7 7 24 0 32 -4 39 -14 24z"/>
<path d="M3642 851 c-8 -4 -16 -27 -19 -50 -6 -41 -5 -41 26 -41 38 0 47 17
31 65 -12 37 -17 40 -38 26z"/>
<path d="M6030 850 c0 -5 5 -10 11 -10 5 0 7 5 4 10 -3 6 -8 10 -11 10 -2 0
-4 -4 -4 -10z"/>
<path d="M1945 820 c-20 -38 -19 -47 4 -60 42 -22 67 21 41 71 -15 27 -27 24
-45 -11z"/>
<path d="M2686 814 c-17 -24 -19 -72 -3 -66 4 1 20 2 36 2 27 0 29 3 25 27 -6
33 -22 63 -33 63 -5 0 -16 -12 -25 -26z"/>
<path d="M2892 810 c0 -19 2 -27 5 -17 2 9 2 25 0 35 -3 9 -5 1 -5 -18z"/>
<path d="M3040 821 c-17 -33 -12 -68 11 -74 45 -12 60 13 39 67 -11 31 -35 34
-50 7z"/>
<path d="M3366 832 c-2 -4 4 -8 14 -8 10 0 16 4 14 8 -3 4 -9 8 -14 8 -5 0
-11 -4 -14 -8z"/>
<path d="M5795 830 c-3 -5 -1 -10 4 -10 6 0 11 5 11 10 0 6 -2 10 -4 10 -3 0
-8 -4 -11 -10z"/>
<path d="M3271 791 c-35 -49 0 -102 47 -72 16 10 7 75 -13 91 -10 8 -18 4 -34
-19z"/>
<path d="M3391 794 c0 -11 3 -14 6 -6 3 7 2 16 -1 19 -3 4 -6 -2 -5 -13z"/>
<path d="M3966 793 c-6 -14 -5 -15 5 -6 7 7 10 15 7 18 -3 3 -9 -2 -12 -12z"/>
<path d="M6752 770 c0 -19 2 -27 5 -17 2 9 2 25 0 35 -3 9 -5 1 -5 -18z"/>
<path d="M3176 774 c-9 -23 -8 -24 15 -24 15 0 19 -5 15 -16 -3 -8 -2 -12 4
-9 15 10 12 35 -5 35 -21 0 -19 18 3 23 13 4 12 5 -4 6 -12 0 -25 -6 -28 -15z"/>
<path d="M3810 780 c0 -5 5 -10 11 -10 5 0 7 5 4 10 -3 6 -8 10 -11 10 -2 0
-4 -4 -4 -10z"/>
<path d="M1740 751 c0 -10 9 -21 20 -24 11 -3 20 -1 20 4 0 5 -8 9 -17 9 -14
1 -12 4 7 15 l25 14 -27 1 c-21 0 -28 -5 -28 -19z"/>
<path d="M2503 754 c10 -3 16 -11 14 -18 -3 -7 -1 -19 4 -27 7 -10 9 -6 7 16
-2 21 -9 30 -23 32 -17 2 -17 1 -2 -3z"/>
<path d="M2915 750 c3 -5 8 -10 11 -10 2 0 4 5 4 10 0 6 -5 10 -11 10 -5 0 -7
-4 -4 -10z"/>
<path d="M2890 728 c0 -15 4 -30 10 -33 6 -3 7 1 4 9 -4 11 0 16 11 16 11 0
15 -5 11 -16 -3 -8 -2 -12 4 -9 15 10 12 25 -7 32 -10 4 -21 11 -25 17 -4 6
-8 -1 -8 -16z"/>
<path d="M6433 705 c0 -22 2 -30 4 -17 2 12 2 30 0 40 -3 9 -5 -1 -4 -23z"/>
<path d="M1640 695 c-15 -45 -7 -65 24 -65 35 0 47 27 30 68 -18 42 -40 41
-54 -3z"/>
<path d="M2702 710 c0 -14 2 -19 5 -12 2 6 2 18 0 25 -3 6 -5 1 -5 -13z"/>
<path d="M2239 718 c-8 -27 -5 -35 11 -31 12 3 20 -2 23 -14 5 -17 5 -17 6 0
1 11 -7 21 -19 24 -11 3 -17 9 -14 14 3 5 3 9 0 9 -3 0 -6 -1 -7 -2z"/>
<path d="M2720 716 c0 -2 8 -10 18 -17 15 -13 16 -12 3 4 -13 16 -21 21 -21
13z"/>
<path d="M2006 697 c4 -12 -1 -26 -15 -41 l-22 -23 33 0 c18 0 25 2 16 4 -21
5 -22 7 -6 33 10 15 10 22 0 32 -11 11 -12 10 -6 -5z"/>
<path d="M3210 674 c-17 -44 -9 -69 23 -72 33 -4 41 13 29 59 -11 43 -38 50
-52 13z"/>
<path d="M3351 677 c-20 -38 -11 -62 25 -65 23 -2 33 2 36 15 14 57 -36 97
-61 50z"/>
<path d="M1825 681 c-4 -7 0 -8 11 -4 12 4 15 2 12 -8 -3 -8 -11 -13 -17 -11
-7 1 -10 -2 -6 -8 3 -6 10 -8 15 -5 4 3 11 -1 14 -7 3 -7 4 0 3 16 -2 30 -20
45 -32 27z"/>
<path d="M3044 655 c-20 -43 -6 -68 35 -63 23 3 26 7 23 37 -3 35 -17 61 -33
61 -4 0 -16 -16 -25 -35z"/>
<path d="M2890 654 c-16 -41 -9 -68 19 -72 34 -5 43 9 33 54 -10 48 -37 58
-52 18z"/>
<path d="M6112 650 c0 -19 2 -27 5 -17 2 9 2 25 0 35 -3 9 -5 1 -5 -18z"/>
<path d="M2740 649 c-20 -37 -20 -58 1 -70 23 -12 59 -3 59 15 0 28 -23 76
-36 76 -7 0 -18 -9 -24 -21z"/>
<path d="M2580 634 c-17 -44 -9 -69 23 -72 33 -4 41 13 29 59 -11 43 -38 50
-52 13z"/>
<path d="M2311 636 c-6 -7 -14 -27 -17 -44 -5 -24 -2 -32 14 -41 42 -22 68 8
51 58 -12 34 -33 46 -48 27z"/>
<path d="M2440 624 c-15 -39 -12 -54 13 -63 44 -17 63 13 39 62 -17 34 -40 35
-52 1z"/>
<path d="M2176 614 c-25 -37 -17 -68 18 -72 33 -4 49 14 36 39 -5 9 -7 19 -3
22 7 7 -15 37 -27 37 -4 0 -15 -12 -24 -26z"/>
<path d="M2034 606 c-23 -37 -15 -70 19 -74 34 -4 43 15 27 63 -14 41 -24 44
-46 11z"/>
<path d="M1901 601 c-39 -39 -14 -103 33 -85 24 9 24 54 1 87 -13 18 -14 18
-34 -2z"/>
<path d="M5149 615 c-3 -6 -3 -23 1 -40 3 -19 8 -25 11 -15 7 18 -5 69 -12 55z"/>
<path d="M5790 586 c0 -20 5 -36 10 -36 6 0 10 13 10 29 0 17 -4 33 -10 36 -6
4 -10 -8 -10 -29z"/>
<path d="M1784 602 c-7 -4 -16 -24 -22 -45 -10 -35 -9 -39 13 -49 49 -22 66 6
44 71 -11 32 -16 36 -35 23z"/>
<path d="M1667 584 c-11 -11 -8 -46 3 -39 5 3 7 12 3 20 -3 8 0 15 5 15 6 0
13 -7 15 -15 4 -12 5 -11 3 1 -1 19 -18 29 -29 18z"/>
<path d="M4886 562 c-3 -5 -1 -22 4 -38 8 -29 8 -29 9 9 1 36 -3 45 -13 29z"/>
<path d="M4647 523 c-6 -11 -2 -51 6 -59 4 -4 7 9 7 29 0 36 -4 45 -13 30z"/>
<path d="M5312 490 c0 -19 2 -27 5 -17 2 9 2 25 0 35 -3 9 -5 1 -5 -18z"/>
<path d="M5045 440 c0 -16 3 -30 8 -30 4 0 7 14 7 30 0 17 -3 30 -7 30 -5 0
-8 -13 -8 -30z"/>
<path d="M4793 395 c0 -22 2 -30 4 -17 2 12 2 30 0 40 -3 9 -5 -1 -4 -23z"/>
<path d="M4540 334 c0 -19 4 -33 8 -30 8 5 4 66 -4 66 -2 0 -4 -16 -4 -36z"/>
</g>
</svg>
